<?xml version="1.0" encoding="UTF-8"?>
<svg id="Livello_1" xmlns="http://www.w3.org/2000/svg" version="1.1" viewBox="0 0 1445.7 1080">
  <!-- Generator: Adobe Illustrator 29.1.0, SVG Export Plug-In . SVG Version: 2.1.0 Build 142)  -->
  <defs>
    <style>
      .st0 {
        fill: none;
        stroke: #af0404;
        stroke-miterlimit: 10;
        stroke-width: 40px;
      }
    </style>
  </defs>
  <path class="st0" d="M1393.8,33.6s-111.2-1.6-426.6-.5c-260.6.9-123.4,242.3-46.7,221.3,104.6,19.5,183.3-152.8,60.9-206.5-25.5-11.2-39.5-16.2-71-21.9-117-10.3-279.2-2.8-318.1-.3-181.8-1.4-297.1,273.4-53.8,296.1,119.4-12,125.4-141.2,111.7-161.7-10.7-45.8-19.8-77.4-151.2-109.5-178.3-10-381-6.9-381-6.9,0,0-91.4,6.3-40.6,115.9,71.6,95.4,150.4,181,150.4,181,0,0-44.5,17.8-54.5,44-11.2,29.5-1.3,63.8,85.6,86.1,52.3,0,89.2-1.8,119.1,5,30,6.8,253.9,259.2,422.6,185.4,168.6-73.8-103.1-348.3-186.9-104.9-48.2,95.9,286.4,507.9,361.1,507.9s232.3-245.5,326.1-477.3c87.6-216.5,128.8-427.1,86.8-452.5-144.2-25.3-177.1-8-178.8,3.2-.8,4.9,3.6,61.1-8.6,134.8-15.6,94-49.5,203.1-60.9,237.1-20.4,60.6-127.6,268.3-216.4,344.5"/>
</svg>